<?xml version="1.0" ?>
<svg ewBox="0 0 32 32vi" xmlns="http://www.w3.org/2000/svg">
    <title/>
   <symbol id="usuario-logo">
            <path d="M16,17.5A7.5,7.5,0,1,1,23.5,10,7.5,7.5,0,0,1,16,17.5Zm0-14A6.5,6.5,0,1,0,22.5,10,6.51,6.51,0,0,0,16,3.5Z"/>
            <path d="M26,28.5H6a.5.5,0,0,1-.5-.5V22a.68.68,0,0,1,0-.14c.48-1.66,2-2.81,3.4-3.82.33-.25.64-.48.93-.72a.51.51,0,0,1,.68.05A7.17,7.17,0,0,0,16,19.5a7.11,7.11,0,0,0,5.45-2.13.51.51,0,0,1,.68-.05c.29.24.6.47.93.71,1.37,1,2.92,2.17,3.4,3.83a.68.68,0,0,1,0,.14v6A.5.5,0,0,1,26,28.5Zm-19.5-1h19V22.07c-.41-1.3-1.79-2.33-3-3.23l-.61-.46A8.24,8.24,0,0,1,16,20.5a8.29,8.29,0,0,1-5.89-2.12l-.62.46c-1.22.9-2.6,1.93-3,3.23Z"/>
   </symbol>
    <symbol id="h" viewBox="0 0 16 16" >
         <path fill-rule="evenodd" d="M4,5 L20,5 C20.5522847,5 21,5.44771525 21,6 C21,6.55228475 20.5522847,7 20,7 L4,7 C3.44771525,7 3,6.55228475 3,6 C3,5.44771525 3.44771525,5 4,5 Z M4,17 L20,17 C20.5522847,17 21,17.4477153 21,18 C21,18.5522847 20.5522847,19 20,19 L4,19 C3.44771525,19 3,18.5522847 3,18 C3,17.4477153 3.44771525,17 4,17 Z M4,11 L20,11 C20.5522847,11 21,11.4477153 21,12 C21,12.5522847 20.5522847,13 20,13 L4,13 C3.44771525,13 3,12.5522847 3,12 C3,11.4477153 3.44771525,11 4,11 Z"/>

    </symbol>
    <symbol id="menu-header" >
        <g>
            <path d="M24,3c0-0.6-0.4-1-1-1H1C0.4,2,0,2.4,0,3v2c0,0.6,0.4,1,1,1h22c0.6,0,1-0.4,1-1V3z"/>
            <path d="M24,11c0-0.6-0.4-1-1-1H1c-0.6,0-1,0.4-1,1v2c0,0.6,0.4,1,1,1h22c0.6,0,1-0.4,1-1V11z"/>
            <path d="M24,19c0-0.6-0.4-1-1-1H1c-0.6,0-1,0.4-1,1v2c0,0.6,0.4,1,1,1h22c0.6,0,1-0.4,1-1V19z"/>
        </g>
    </symbol>
    <symbol id="menu-x">
            
        <title/>
        <g data-name="Layer 2" id="Layer_2">
            <path d="M4,29a1,1,0,0,1-.71-.29,1,1,0,0,1,0-1.42l24-24a1,1,0,1,1,1.42,1.42l-24,24A1,1,0,0,1,4,29Z"/>
            <path d="M28,29a1,1,0,0,1-.71-.29l-24-24A1,1,0,0,1,4.71,3.29l24,24a1,1,0,0,1,0,1.42A1,1,0,0,1,28,29Z"/>
        </g>
        <g id="frame">
            <rect class="cls-1" height="32" width="32"/>
        </g>
    </symbol>
</svg>



